<svg id="Layer_1" enable-background="new 0 0 510.828 510.828" height="512" viewBox="0 0 510.828 510.828" width="512" xmlns="http://www.w3.org/2000/svg"><g><ellipse cx="255.414" cy="255.414" fill="#00f7ff" rx="255.332" ry="255.414"/><path d="m255.466 0v510.827c140.992-.028 255.28-114.37 255.28-255.413s-114.288-255.386-255.28-255.414z" fill="#00d7df"/><path d="m344.599 235.034-118.739-90.568c-5.727-4.404-13.312-5.156-19.791-1.965-6.481 3.192-10.507 9.663-10.507 16.887v52.509c-.161 35.119-.443 109.559-.353 140.155 0 6.968 3.895 13.186 10.164 16.227 2.529 1.227 5.224 1.83 7.899 1.83 3.958 0 7.872-1.32 11.137-3.894l120.453-94.962c5.595-4.41 8.778-11.025 8.734-18.148-.043-7.122-3.307-13.697-8.997-18.071z" fill="#fff5f5"/><path d="m344.599 235.041-89.133-67.986v174.683l89.396-70.477c5.595-4.41 8.778-11.025 8.734-18.148-.043-7.123-3.307-13.698-8.997-18.072z" fill="#dfebf1"/></g></svg>